<?xml version="1.0" encoding="utf-8"?>
<!-- Generator: Adobe Illustrator 26.0.1, SVG Export Plug-In . SVG Version: 6.00 Build 0)  -->
<svg version="1.1" id="Layer_1" xmlns="http://www.w3.org/2000/svg" xmlns:xlink="http://www.w3.org/1999/xlink" x="0px" y="0px"
	 viewBox="0 0 500 500" style="enable-background:new 0 0 500 500;" xml:space="preserve">
<style type="text/css">
	.st0{fill:none;stroke:#1D1D1B;stroke-miterlimit:10;}
	.st1{fill:none;stroke:#1D1D1B;stroke-miterlimit:10;stroke-dasharray:4.953,4.953;}
	.st2{fill:#272727;}
</style>
<g>
	<g>
		<g>
			<path class="st0" d="M254.61,318.77c-0.59,0.59-1.19,1.17-1.79,1.74"/>
			<path class="st1" d="M249.14,323.84c-17.01,14.6-39.13,23.42-63.31,23.42c-53.72,0-97.26-43.55-97.26-97.26
				s43.55-97.26,97.26-97.26c34.8,0,65.34,18.28,82.52,45.76"/>
			<path class="st0" d="M269.65,200.62c0.42,0.72,0.84,1.44,1.24,2.17"/>
		</g>
	</g>
	<path class="st2" d="M76.48,235.98l11.57-2.25c0.26-1.94,0.72-3.87,1.28-5.28c0.06-0.14,2.49-6.31,5.26-13.32l-5.07-0.39
		c-0.74,1.03-1.49,1.64-2.13,1.36c-0.45-0.2-0.65-0.78-0.67-1.57l-5.97-0.46c-0.92,1.52-1.92,2.62-2.76,2.24
		c-0.64-0.28-0.78-1.26-0.68-2.51L66,212.91l1.85-5.92l11.99-2.03l1.02-2.59c0.2-0.5,0.79-0.73,1.32-0.5l2.26,0.99
		c0.49,0.21,0.75,0.74,0.62,1.22l4.77-0.81l0.8-2.03c0.21-0.54,0.82-0.79,1.34-0.57l2.26,0.99c0.32,0.14,0.54,0.43,0.61,0.76
		l5.11-0.86c1.51-3.83,2.58-6.53,2.61-6.62c1.55-3.94,6.04-9.55,8.44-8.51c2.39,1.05,1.78,8.36,0.23,12.3
		c-0.04,0.09-1.1,2.79-2.61,6.62l3.02,4.42c0.27-0.18,0.62-0.22,0.94-0.08l2.26,0.99c0.52,0.23,0.78,0.86,0.57,1.4l-0.8,2.03
		l2.82,4.13c0.24-0.43,0.78-0.61,1.26-0.4l2.26,0.99c0.52,0.23,0.79,0.83,0.59,1.34l-1.02,2.59l7.09,10.38l-2.68,5.56l-8.57-7.83
		c-0.76,0.96-1.52,1.54-2.16,1.26c-0.85-0.36-0.81-1.88-0.44-3.64l-4.52-4.13c-0.55,0.54-1.08,0.8-1.53,0.61
		c-0.64-0.27-0.76-1.27-0.59-2.55l-3.84-3.51c-2.76,7.01-5.2,13.18-5.26,13.32c-0.56,1.42-1.53,3.13-2.65,4.68l6.65,10.23
		l-0.86,2.99l-9.68-8.98c-1.58,3.06-3.61,6.49-4.46,5.96c-0.84-0.52,0.01-4.29,0.92-7.5l-12.85-0.89L76.48,235.98z"/>
	<g>
		<path d="M192.7,233.16h10.7l-18.63,50.3h-8.79l-18.7-50.3h10.84l12.19,36.13h0.14L192.7,233.16z"/>
		<path d="M230.6,284.03c-7.56,0-13.72-2.42-18.49-7.26c-4.77-4.84-7.16-10.99-7.16-18.46c0-7.51,2.38-13.68,7.16-18.53
			c4.77-4.84,10.93-7.26,18.49-7.26c7.46,0,13.59,2.38,18.38,7.16c4.79,4.77,7.19,10.98,7.19,18.63c0,7.65-2.4,13.85-7.19,18.6
			C244.19,281.66,238.07,284.03,230.6,284.03z M230.68,274.75c4.34,0,7.96-1.56,10.84-4.68c2.88-3.12,4.32-7.04,4.32-11.76
			c0-4.72-1.44-8.64-4.32-11.76c-2.88-3.12-6.5-4.68-10.84-4.68c-4.49,0-8.17,1.58-11.05,4.75c-2.88,3.16-4.32,7.06-4.32,11.69
			c0,4.63,1.44,8.53,4.32,11.69C222.5,273.17,226.19,274.75,230.68,274.75z"/>
		<path d="M287.99,233.16h11.55l-16.79,28.2v22.1h-10.06v-22.1l-16.65-28.2h11.41l10.26,18.36h0.15L287.99,233.16z"/>
		<path d="M332.62,283.47l-3.39-10.06h-19.36l-3.4,10.06h-10.41l18.63-50.3h9.57l18.77,50.3H332.62z M312.75,264.9h13.62
			l-6.78-19.77h-0.14L312.75,264.9z"/>
		<path d="M370.67,283.96c-7.46,0-13.62-2.29-18.46-6.87c-4.84-4.58-7.26-10.81-7.26-18.7c0-7.51,2.29-13.7,6.87-18.56
			c4.58-4.86,10.72-7.3,18.42-7.3c3.73,0,7.37,0.73,10.91,2.2c3.54,1.47,6.56,3.61,9.07,6.45l-7.09,5.95
			c-3.59-3.45-7.89-5.17-12.89-5.17c-4.25,0-7.79,1.49-10.63,4.46c-2.83,2.98-4.25,6.97-4.25,11.97c0,4.72,1.39,8.64,4.18,11.76
			c2.79,3.12,6.49,4.68,11.12,4.68c3.68,0,7.08-0.94,10.2-2.83v-7.44h-11.34v-8.5h20.9v21.68c-2.31,1.89-5.24,3.4-8.78,4.53
			C378.11,283.4,374.45,283.96,370.67,283.96z"/>
		<path d="M400.35,283.47v-50.3h32.16v8.93h-22.39v12.04h17.92v8.79h-17.92v11.69H434v8.86H400.35z"/>
	</g>
</g>
</svg>
